<svg width="24" height="24" viewBox="0 0 150 150" fill="#F5BA45" xmlns="http://www.w3.org/2000/svg">
  <path d="M82.8711 3.11793C87.0431 7.28993 87.0271 14.0389 82.8711 18.2109C81.8807 19.2028 80.7044 19.9897 79.4096 20.5266C78.1148 21.0634 76.7268 21.3398 75.3251 21.3398C73.9234 21.3398 72.5355 21.0634 71.2407 20.5266C69.9458 19.9897 68.7696 19.2028 67.7791 18.2109C63.6231 14.0389 63.6231 7.28994 67.7791 3.13394C71.9511 -1.03806 78.7011 -1.03807 82.8711 3.11793ZM82.8711 131.114C87.0431 135.285 87.0271 142.035 82.8711 146.207C81.8807 147.199 80.7044 147.986 79.4096 148.523C78.1148 149.059 76.7268 149.336 75.3251 149.336C73.9234 149.336 72.5355 149.059 71.2407 148.523C69.9458 147.986 68.7696 147.199 67.7791 146.207C63.6231 142.035 63.6231 135.285 67.7791 131.114C71.9511 126.958 78.7011 126.958 82.8711 131.114Z" />
  <path d="M30.0782 18.7422C35.9692 18.7422 40.7502 23.5232 40.7502 29.4142C40.7502 35.3052 35.9692 40.0862 30.0782 40.0862C24.1872 40.0862 19.4062 35.3052 19.4062 29.4142C19.4062 23.5232 24.1882 18.7422 30.0782 18.7422ZM120.574 109.255C126.465 109.255 131.246 114.036 131.246 119.911C131.246 125.817 126.465 130.583 120.574 130.583C114.683 130.583 109.918 125.817 109.918 119.911C109.917 118.512 110.193 117.126 110.728 115.832C111.263 114.539 112.048 113.364 113.038 112.375C114.027 111.385 115.202 110.6 116.495 110.065C117.789 109.529 119.175 109.254 120.574 109.255Z" />
  <path d="M3.78106 67.116C7.95306 62.96 14.7031 62.96 18.8751 67.132C23.0471 71.288 23.0311 78.038 18.8751 82.21C14.7031 86.365 7.95306 86.381 3.78106 82.21C-0.374938 78.038 -0.374938 71.288 3.78106 67.116ZM131.777 67.116C135.949 62.96 142.699 62.96 146.871 67.116C151.027 71.288 151.027 78.038 146.871 82.21C145.88 83.2017 144.704 83.9884 143.409 84.5252C142.114 85.0619 140.726 85.3382 139.324 85.3382C137.922 85.3382 136.534 85.0619 135.239 84.5252C133.944 83.9884 132.768 83.2017 131.777 82.21C127.621 78.038 127.621 71.288 131.777 67.116Z" />
  <path d="M19.4062 119.911C19.4062 114.02 24.1872 109.255 30.0782 109.255C35.9692 109.255 40.7502 114.021 40.7502 119.911C40.7502 125.801 35.9692 130.583 30.0782 130.583C24.1872 130.583 19.4062 125.802 19.4062 119.911ZM109.918 29.4142C109.918 23.5232 114.684 18.7422 120.574 18.7422C126.464 18.7422 131.246 23.5232 131.246 29.4142C131.246 35.3052 126.465 40.0702 120.574 40.0702C114.684 40.0862 109.918 35.3052 109.918 29.4142ZM75.3262 106.661C57.6852 106.661 43.3282 92.3032 43.3282 74.6632C43.3282 57.0222 57.6852 42.6642 75.3262 42.6642C92.9652 42.6642 107.324 57.0222 107.324 74.6632C107.324 92.3032 92.9652 106.661 75.3262 106.661Z" />
  <path d="M75.3262 32.0078C51.7652 32.0078 32.6562 51.1008 32.6562 74.6628C32.6562 98.2238 51.7652 117.333 75.3262 117.333C98.8872 117.333 117.996 98.2238 117.996 74.6628C117.996 51.1008 98.8872 32.0078 75.3262 32.0078V32.0078ZM75.3262 96.0058C63.5602 96.0058 54.0002 86.4278 54.0002 74.6628C54.0002 62.8968 63.5612 53.3348 75.3262 53.3348C87.0902 53.3348 96.6523 62.8978 96.6523 74.6628C96.6523 86.4278 87.0902 96.0058 75.3262 96.0058Z" />
</svg>