<svg version="1.1" xmlns="http://www.w3.org/2000/svg" viewBox="0 0 1491.4138823009675 1143.328222002302" width="2982.827764601935" height="2286.656444004604" filter="invert(93%) hue-rotate(180deg)">
  <!-- svg-source:excalidraw -->
  
  <defs><style/></defs>
  <rect x="0" y="0" width="1491.4138823009675" height="1143.328222002302" fill="#ffffff"/><g stroke-linecap="round" transform="translate(327.8173175892144 340.33786046647026) rotate(0 57 30)"><path d="M1.03 1.86 C33.96 0.48, 71.66 -1.8, 114.56 0.67 M0.02 -0.25 C43.16 -1.21, 88.8 -0.94, 114.54 0.88 M115.84 -0.84 C115.82 18.69, 113.04 34.77, 115.41 59.94 M113.98 -0.86 C114.15 12.43, 114.16 25.31, 113.98 59.29 M115.58 59.83 C79.9 57.63, 45.92 59.87, 1.91 58.3 M114.4 59.15 C79.57 59.9, 46.1 59.11, -0.28 60.3 M-1.08 61.21 C0.35 48.29, 1.35 35.2, -0.76 0.37 M0.25 60.37 C-0.8 41.66, -0.18 24.46, -0.88 -0.76" stroke="#000000" stroke-width="1" fill="none"/></g><g stroke-linecap="round"><g transform="translate(314.2752367554161 339.227905703161) rotate(0.26378087871842537 1.768729750812053 245.4119214132428)"><path d="M-0.91 -0.12 C-0.53 81.85, 2.78 410.06, 3.47 491.78" stroke="#000000" stroke-width="1.5" fill="none" stroke-dasharray="8 9"/></g></g><g stroke-linecap="round"><g transform="translate(631.2377225371354 341.19221783814834) rotate(0.26378087871842537 1.7687297508120423 245.41192141324282)"><path d="M0.78 0.34 C1.53 81.91, 3.65 408.09, 4.1 489.82" stroke="#000000" stroke-width="1.5" fill="none" stroke-dasharray="8 9"/></g></g><g stroke-linecap="round"><g transform="translate(986.7176216256771 339.9785528500386) rotate(0.26378087871842537 1.7687297508120423 245.41192141324282)"><path d="M-1.01 -1.18 C-0.16 80.54, 3.92 409.05, 4.61 491.03" stroke="#000000" stroke-width="1.5" fill="none" stroke-dasharray="8 9"/></g></g><g stroke-linecap="round"><g transform="translate(1340.7014879993749 339.94308705208505) rotate(0.26378087871842537 1.7687297508120992 245.41192141324285)"><path d="M1.17 -1 C1.95 80.75, 4 409.2, 4.54 491.07" stroke="#000000" stroke-width="1.5" fill="none" stroke-dasharray="8 9"/></g></g><g transform="translate(332.8173175892144 345.33786046647026) rotate(0 52 25)"><text x="52" y="18" font-family="LocalFont, Segoe UI Emoji" font-size="20px" fill="#000000" text-anchor="middle" style="white-space: pre;" direction="ltr"/><text x="52" y="43" font-family="LocalFont, Segoe UI Emoji" font-size="20px" fill="#000000" text-anchor="middle" style="white-space: pre;" direction="ltr">信息输入</text></g><g stroke-linecap="round" transform="translate(650.6592232840405 342.387465738705) rotate(0 57 20.359219868977846)"><path d="M-0.19 -1.81 C40.91 2.11, 85.51 -0.21, 115.79 0.18 M-0.45 0.66 C34.35 -1.9, 68.13 -0.63, 113.28 0.27 M113.4 1.64 C115.87 16.67, 114.08 33.5, 114.4 39.79 M113.48 0.85 C113.22 13.28, 113.33 27.27, 113.4 41.3 M114.84 42.27 C78.12 42.4, 47.3 43.01, 0.08 42.13 M114.72 41.08 C82.65 39.91, 50.95 40.28, -0.93 41.66 M1.91 40.63 C1.43 31.93, 0.06 23.34, -1.4 -1.03 M-0.7 41.55 C0.77 29.79, -1.06 20.75, -0.03 0.47" stroke="#000000" stroke-width="1" fill="none"/></g><g transform="translate(655.6592232840405 350.2466856076828) rotate(0 52 12.5)"><text x="52" y="18" font-family="LocalFont, Segoe UI Emoji" font-size="20px" fill="#000000" text-anchor="middle" style="white-space: pre;" direction="ltr">提炼整理</text></g><g stroke-linecap="round" transform="translate(1010.9717232840403 343.3363589678716) rotate(0 57 20.359219868977846)"><path d="M-0.09 1.73 C42.21 -0.73, 84.63 -2.49, 112.97 -0.92 M0.83 0.85 C35.76 -0.19, 73.4 0.76, 114.47 -0.46 M115.86 -1.17 C114.92 16.26, 114.3 30.66, 115.13 40.62 M113.69 -0.43 C114.34 12.35, 113.32 24.45, 114.83 40.92 M112.15 39.59 C71.71 38.65, 30.76 39.27, 1.42 39.5 M114.91 40.41 C70.05 40.6, 28.02 39.51, -0.99 41.02 M-0.29 40.02 C2.02 24.87, 1.38 14.35, 0.03 -1.83 M-0.2 39.92 C1.02 31.41, 0.47 23.71, 0.05 0.95" stroke="#000000" stroke-width="1" fill="none"/></g><g transform="translate(1015.9717232840403 351.19557883684945) rotate(0 52 12.5)"><text x="52" y="18" font-family="LocalFont, Segoe UI Emoji" font-size="20px" fill="#000000" text-anchor="middle" style="white-space: pre;" direction="ltr">消化输出</text></g><g stroke-linecap="round" transform="translate(1367.4138823009675 347.48166332985073) rotate(0 57 20.359219868977846)"><path d="M1.59 -0.73 C40.21 -1.52, 81.67 -0.11, 115.36 0.5 M0.74 -0.95 C33.25 1.78, 65.36 0.02, 113.25 0.28 M115.21 1.68 C112.38 11.7, 114.26 23.93, 113.68 39.3 M113.87 -0.87 C114.7 13.78, 113.29 27.14, 113.26 39.95 M115.69 42.54 C86.53 41.21, 57.91 41.81, -1.77 40.43 M114.38 41.41 C78.5 40.67, 41.44 39.85, 0.56 40.18 M-1.28 38.99 C-1.42 30.25, -0.85 17.72, 1.69 -0.74 M-0.88 40.05 C0.31 33.24, 0.59 24.95, -0.86 0.55" stroke="#000000" stroke-width="1" fill="none"/></g><g transform="translate(1372.4138823009675 355.3408831988286) rotate(0 52 12.5)"><text x="52" y="18" font-family="LocalFont, Segoe UI Emoji" font-size="20px" fill="#000000" text-anchor="middle" style="white-space: pre;" direction="ltr">精校发布</text></g><g stroke-linecap="round" transform="translate(439.7444893973214 519.3798846636728) rotate(0 122 51.377894083658845)"><path d="M110.51 0.82 C124.98 -0.58, 142.02 0.57, 156.75 2.52 C171.49 4.46, 186.66 8.56, 198.93 12.48 C211.19 16.39, 223.04 20.3, 230.34 26 C237.65 31.69, 241.26 39.92, 242.78 46.65 C244.29 53.39, 243.64 60.21, 239.42 66.39 C235.2 72.57, 227.32 78.8, 217.45 83.74 C207.59 88.68, 193.97 92.73, 180.21 96.01 C166.45 99.3, 150.26 102.58, 134.88 103.47 C119.5 104.36, 103.03 103.3, 87.93 101.36 C72.84 99.42, 56.53 96.12, 44.3 91.82 C32.07 87.52, 21.91 81.3, 14.55 75.57 C7.18 69.84, 1.72 64.07, 0.11 57.44 C-1.49 50.81, 0.39 42.07, 4.89 35.79 C9.4 29.52, 17.32 24.64, 27.14 19.78 C36.96 14.93, 48.71 9.82, 63.83 6.68 C78.95 3.55, 107.43 1.77, 117.86 0.96 C128.28 0.16, 126.22 1.07, 126.38 1.86 M100.75 1.62 C114.76 -0.54, 131.73 -0.26, 146.76 0.89 C161.79 2.04, 177.85 4.66, 190.95 8.5 C204.06 12.35, 217.04 18.27, 225.39 23.97 C233.74 29.67, 238.58 36.23, 241.05 42.7 C243.51 49.17, 243.46 56.61, 240.19 62.76 C236.92 68.92, 230.08 74.08, 221.42 79.63 C212.77 85.19, 201.45 92.36, 188.27 96.08 C175.09 99.8, 157.53 100.98, 142.37 101.94 C127.21 102.89, 112.17 103.03, 97.31 101.82 C82.45 100.6, 66.22 98.27, 53.21 94.64 C40.2 91.01, 27.57 85.56, 19.25 80.02 C10.94 74.49, 6.22 68.06, 3.31 61.44 C0.39 54.82, -1.48 46.89, 1.76 40.29 C5.01 33.68, 13.76 27.02, 22.79 21.81 C31.81 16.6, 43.19 12.71, 55.93 9.02 C68.68 5.32, 91.82 0.84, 99.25 -0.37 C106.67 -1.57, 100.1 0.6, 100.49 1.77" stroke="#000000" stroke-width="1" fill="none"/></g><g transform="translate(444.7444893973214 558.2577787473317) rotate(0 117 12.5)"><text x="117" y="18" font-family="LocalFont, Segoe UI Emoji" font-size="20px" fill="#000000" text-anchor="middle" style="white-space: pre;" direction="ltr">滴答清单</text></g><g stroke-linecap="round" transform="translate(10 791.0089867347992) rotate(0 57 20.359219868977846)"><path d="M-1.26 1.62 C29.88 -0.96, 62.48 1.88, 114.12 1.95 M114.32 1.15 C114.25 13.77, 112.57 28.26, 114.41 39.15 M115.17 41.94 C88.95 41.35, 61.36 41.67, 0.99 39.66 M-0.9 41.49 C0.01 23.16, -1.14 8.15, 1.24 0.13" stroke="#000000" stroke-width="1.5" fill="none" stroke-dasharray="1.5 7"/></g><g transform="translate(15 798.8682066037771) rotate(0 52 12.5)"><text x="52" y="18" font-family="LocalFont, Segoe UI Emoji" font-size="20px" fill="#000000" text-anchor="middle" style="white-space: pre;" direction="ltr">团队共享</text></g><g stroke-linecap="round" transform="translate(88.58250209263389 402.4971255694347) rotate(0 57 20.359219868977846)"><path d="M1.7 0.59 C27.54 -0.63, 54.14 1.69, 113.12 -1.21 M114.75 -1.5 C114.88 7.58, 115.8 17.7, 114.68 40.58 M113.26 40.87 C72.54 40.22, 29.46 41.64, -1.94 40.17 M-1.73 39.95 C-1.01 30.88, 1.95 18.91, 0.66 -0.47" stroke="#000000" stroke-width="1.5" fill="none" stroke-dasharray="1.5 7"/></g><g transform="translate(93.58250209263389 410.3563454384125) rotate(0 52 12.5)"><text x="52" y="18" font-family="LocalFont, Segoe UI Emoji" font-size="20px" fill="#000000" text-anchor="middle" style="white-space: pre;" direction="ltr">移动端</text></g><g stroke-linecap="round" transform="translate(88.58250209263389 502.47576326474706) rotate(0 57 20.359219868977846)"><path d="M1.87 -1.34 C45.24 0.81, 91.02 -2.4, 113.69 -1.35 M115.7 1.19 C113.96 13.75, 111.89 26.26, 114.41 41.77 M113.84 41.99 C73.78 41.57, 32.36 40.09, 1.01 42.12 M-1.56 42.44 C-2.09 32.22, 0.31 22.46, 1.01 1.68" stroke="#000000" stroke-width="1.5" fill="none" stroke-dasharray="1.5 7"/></g><g transform="translate(93.58250209263389 510.3349831337249) rotate(0 52 12.5)"><text x="52" y="18" font-family="LocalFont, Segoe UI Emoji" font-size="20px" fill="#000000" text-anchor="middle" style="white-space: pre;" direction="ltr">桌面端</text></g><g stroke-linecap="round" transform="translate(822.0814746675039 415.79190826416016) rotate(0 117 51.42200469970703)"><path d="M92.82 2.05 C106.3 0.01, 123.66 -0.84, 138.42 0.23 C153.18 1.3, 168.99 4.77, 181.39 8.47 C193.8 12.17, 204.41 17.14, 212.86 22.44 C221.31 27.75, 229.06 33.83, 232.09 40.27 C235.12 46.71, 233.97 54.51, 231.04 61.06 C228.12 67.62, 222.38 74.28, 214.53 79.62 C206.69 84.97, 196.27 89.43, 183.98 93.14 C171.69 96.86, 155.55 100.46, 140.77 101.91 C125.98 103.36, 109.8 103, 95.27 101.85 C80.74 100.7, 66.09 98.69, 53.6 95.01 C41.11 91.33, 28.73 85.12, 20.34 79.78 C11.95 74.43, 6.26 69.3, 3.26 62.96 C0.27 56.62, -0.28 48.32, 2.38 41.73 C5.04 35.14, 11.18 28.83, 19.22 23.44 C27.26 18.05, 35.98 13.34, 50.61 9.38 C65.24 5.43, 95.3 1.26, 106.99 -0.26 C118.68 -1.79, 120.58 -0.65, 120.73 0.24 M116.92 -1.22 C131.25 -1.78, 147.16 1.38, 161.07 4.06 C174.98 6.73, 189.81 10.19, 200.37 14.83 C210.92 19.48, 218.73 25.82, 224.39 31.91 C230.04 38.01, 234.05 44.93, 234.27 51.4 C234.49 57.88, 231.67 64.52, 225.69 70.76 C219.71 77.01, 208.95 83.98, 198.41 88.86 C187.88 93.75, 176.05 97.67, 162.48 100.07 C148.92 102.47, 131.82 103.48, 117.02 103.26 C102.22 103.03, 87.34 101.28, 73.68 98.7 C60.02 96.12, 45.84 92.14, 35.05 87.78 C24.25 83.41, 14.95 78.49, 8.91 72.51 C2.87 66.54, -1.34 58.98, -1.2 51.95 C-1.06 44.93, 3.98 36.29, 9.77 30.38 C15.55 24.46, 22.98 20.79, 33.53 16.49 C44.08 12.19, 59.23 7.2, 73.09 4.59 C86.94 1.97, 109.14 1.3, 116.65 0.79 C124.16 0.28, 118.29 0.57, 118.14 1.54" stroke="#000000" stroke-width="1" fill="none"/></g><g transform="translate(827.0814746675039 454.7139129638672) rotate(0 112 12.5)"><text x="112" y="18" font-family="LocalFont, Segoe UI Emoji" font-size="20px" fill="#000000" text-anchor="middle" style="white-space: pre;" direction="ltr">devonthink</text></g><g stroke-linecap="round" transform="translate(361.97344244094137 699.3264541625977) rotate(0 146.63211822509766 34.13982391357422)"><path d="M145.41 -1.29 C187.03 10.83, 223.57 18.27, 291.91 35.32 M147.5 0.09 C202.73 12.76, 256.19 25.97, 293.12 34.95 M293.02 34.37 C239.82 46.63, 187.12 58.74, 146.53 68.17 M292.32 34.59 C255.94 45.15, 219.28 53.4, 147.33 67.56 M148.82 68.47 C108.62 57.21, 67.49 49.97, 1.04 33.39 M146.22 68.81 C115.5 61.56, 83.6 54.59, 0.42 34.66 M-0.76 35.64 C49.71 23.45, 101.84 9.49, 147.57 -1.24 M0.03 35.27 C35.45 28.5, 69.97 19.43, 147.16 0.29" stroke="#000000" stroke-width="1" fill="none"/></g><g transform="translate(366.97344244094137 720.4662780761719) rotate(0 141.63211822509766 13)"><text x="141.63211822509766" y="18" font-family="LocalFont, Segoe UI Emoji" font-size="20.037365343982856px" fill="#000000" text-anchor="middle" style="white-space: pre;" direction="ltr">信息管理系统</text></g><g stroke-linecap="round" transform="translate(876.9799655732659 674.1492106119791) rotate(0 146.63211822509766 34.13982391357422)"><path d="M147.36 -0.14 C195.63 13.88, 243.53 23.04, 293.26 33.32 M146.49 -0.46 C191.62 12.38, 235.57 22.73, 292.42 34.75 M294.16 34.74 C245.1 44.59, 196.8 55.11, 146.18 68 M294.01 35.09 C255.77 42.82, 220.08 50.75, 146.78 67.56 M147.97 68.27 C101.4 58.78, 58.53 47.53, 0.4 36.69 M146.77 68.88 C98.96 58.77, 51.58 47.25, -0.47 35.11 M-1.61 34.04 C45.16 21.48, 95.19 13.28, 145.46 -0.55 M-0.66 34.7 C33.61 27.18, 66.53 20.49, 147.31 0.9" stroke="#000000" stroke-width="1" fill="none"/></g><g transform="translate(881.9799655732659 695.2890345255533) rotate(0 141.63211822509766 13)"><text x="141.63211822509766" y="18" font-family="LocalFont, Segoe UI Emoji" font-size="20.037365343982856px" fill="#000000" text-anchor="middle" style="white-space: pre;" direction="ltr">知识管理系统</text></g><g stroke-linecap="round" transform="translate(366.1590427217031 788.1499633789062) rotate(0 146.63211822509766 34.13982391357422)"><path d="M148.69 0.44 C203.74 15.06, 262.53 28.7, 291.51 35.28 M147.11 0.19 C178.03 8.58, 207.38 14.91, 292.5 34.22 M292.71 33.5 C238.75 45.13, 180.8 58.62, 148.36 66.31 M294.16 35.75 C241.72 46.59, 191.05 59.55, 146.93 67.67 M147.86 67.22 C111.55 60.28, 75 52.11, 1.75 35.94 M146.32 69 C89.92 53.2, 30.31 41.14, -0.96 35.91 M0.93 35.6 C55.07 21.35, 109.45 8.83, 145.7 1.83 M0.86 34.11 C33.27 28.48, 64.2 21.11, 147.3 -0.55" stroke="#000000" stroke-width="1" fill="none"/></g><g transform="translate(371.1590427217031 809.2897872924805) rotate(0 141.63211822509766 13)"><text x="141.63211822509766" y="18" font-family="LocalFont, Segoe UI Emoji" font-size="20.056074185996142px" fill="#000000" text-anchor="middle" style="white-space: pre;" direction="ltr">任务管理系统</text></g><g stroke-linecap="round" transform="translate(697.3846940540134 599.2768031529017) rotate(0 146.63211822509766 34.13982391357422)"><path d="M145.69 -0.6 C181.45 6.95, 214.03 17.2, 293.88 36.8 M147.3 0.76 C201.73 13.31, 256.16 27.37, 292.9 35.43 M293.41 35.68 C259.02 44.65, 223.01 53.77, 145.2 66.91 M292.32 35.32 C238.18 47.29, 185.44 58.46, 147.68 68.74 M146.26 69.32 C97.22 59.47, 48.43 44.82, -1.56 36.72 M146.05 68.67 C116.1 60.77, 84.12 53.52, 0.67 35.15 M0.01 35.11 C50.33 23.29, 101.76 10.61, 146.07 -0.82 M0.9 34.99 C48.82 21.73, 95.38 10.68, 146.74 -0.13" stroke="#000000" stroke-width="1" fill="none"/></g><g transform="translate(702.3846940540134 620.4166270664759) rotate(0 141.63211822509766 13)"><text x="141.63211822509766" y="18" font-family="LocalFont, Segoe UI Emoji" font-size="20.056074185996142px" fill="#000000" text-anchor="middle" style="white-space: pre;" direction="ltr">高效学习系统</text></g><g stroke-linecap="round" transform="translate(135.45600164504293 10) rotate(0 354 56)"><path d="M355.91 -1.05 C481.06 19.53, 606.99 38.38, 707.23 56.47 M354.95 0.21 C484.33 23.34, 613.18 43.49, 708.13 57.37 M707.86 55.76 C602.19 76.54, 496.8 91.45, 353.77 111.69 M707.79 56.58 C599.12 74.42, 489.1 91.89, 354.58 111.59 M354.31 111.99 C237.27 93.4, 120.03 77.37, -0.45 56.75 M354.78 111.42 C250.67 98.09, 145.43 81.77, 0.09 56.43 M0.47 57.21 C90.27 41.39, 179.64 25.87, 354.43 -0.56 M-0.43 57.33 C90.62 40.21, 180.28 26.18, 355.63 0.4" stroke="#000000" stroke-width="1" fill="none"/></g><g transform="translate(140.45600164504293 53) rotate(0 349 13)"><text x="349" y="18" font-family="LocalFont, Segoe UI Emoji" font-size="20.037365343982856px" fill="#000000" text-anchor="middle" style="white-space: pre;" direction="ltr">搜索系统</text></g><g stroke-linecap="round" transform="translate(326.4496212913879 424.9478302001952) rotate(0 76.22742789132255 44)"><path d="M22 0 M22 0 C46.19 0.32, 71.82 -0.34, 130.45 0 M22 0 C47.12 0.66, 70.63 0.98, 130.45 0 M130.45 0 C143.38 1.82, 151.77 5.5, 152.45 22 M130.45 0 C146.95 1.21, 153.88 8.42, 152.45 22 M152.45 22 C150.65 36.7, 152.8 49.93, 152.45 66 M152.45 22 C151.51 34.08, 151.97 46.59, 152.45 66 M152.45 66 C152.1 82.56, 143.78 89.06, 130.45 88 M152.45 66 C154.08 80.01, 145.15 88.89, 130.45 88 M130.45 88 C88.18 88.78, 43.26 86.64, 22 88 M130.45 88 C106.4 88.15, 80.65 86.94, 22 88 M22 88 C8.39 89.15, -1.2 79.07, 0 66 M22 88 C8.26 87.21, -0.41 81.18, 0 66 M0 66 C-0.68 49.86, -1.07 35.55, 0 22 M0 66 C0.92 50.57, 0.76 33.9, 0 22 M0 22 C-1.27 7.7, 8.66 0.92, 22 0 M0 22 C0.2 7.16, 8.26 -2.29, 22 0" stroke="#000000" stroke-width="1" fill="none"/></g><a href="[[∑ PKM]]"><g transform="translate(331.4496212913879 429.9478302001952) rotate(0 71.22742789132255 39)"><text x="71.22742789132255" y="18" font-family="LocalFont, Segoe UI Emoji" font-size="20.25749067671098px" fill="#000000" text-anchor="middle" style="white-space: pre;" direction="ltr">📍[[『入不孵</text><text x="71.22742789132255" y="44" font-family="LocalFont, Segoe UI Emoji" font-size="20.25749067671098px" fill="#000000" text-anchor="middle" style="white-space: pre;" direction="ltr">出』PKM系统]</text><text x="71.22742789132255" y="70" font-family="LocalFont, Segoe UI Emoji" font-size="20.25749067671098px" fill="#000000" text-anchor="middle" style="white-space: pre;" direction="ltr">]</text></g></a><g stroke-linecap="round" transform="translate(1314.3839409237817 415.2631105695452) rotate(0 76.22742789132258 31)"><path d="M15.5 0 M15.5 0 C56.76 1.77, 95.03 0.19, 136.95 0 M15.5 0 C48.35 1.99, 81.04 1.37, 136.95 0 M136.95 0 C148.41 1.29, 153.83 4.91, 152.45 15.5 M136.95 0 C147.02 1.06, 152.31 4.84, 152.45 15.5 M152.45 15.5 C150.68 23.39, 153.78 32.71, 152.45 46.5 M152.45 15.5 C153.2 28.28, 151.54 40.84, 152.45 46.5 M152.45 46.5 C151.74 57.98, 147.01 61.04, 136.95 62 M152.45 46.5 C151.68 56.56, 146.15 61.61, 136.95 62 M136.95 62 C98.41 60.06, 62.29 61.28, 15.5 62 M136.95 62 C102.53 62, 70.17 63.54, 15.5 62 M15.5 62 C5.42 61.64, 0.27 58.43, 0 46.5 M15.5 62 C5.49 63.14, 2.28 56.96, 0 46.5 M0 46.5 C-1.76 32.65, -1.56 20, 0 15.5 M0 46.5 C-0.43 34.3, -0.1 21.4, 0 15.5 M0 15.5 C-1.83 4.11, 4.27 0.45, 15.5 0 M0 15.5 C-1.01 7.42, 5.41 0.27, 15.5 0" stroke="#000000" stroke-width="1" fill="none"/></g><a href="[[个人输出发布系统]]"><g transform="translate(1319.3839409237817 433.2631105695452) rotate(0 71.22742789132258 13)"><text x="71.22742789132255" y="18" font-family="LocalFont, Segoe UI Emoji" font-size="20.387476512523104px" fill="#000000" text-anchor="middle" style="white-space: pre;" direction="ltr">📍[[输出系统]]</text></g></a><g stroke-linecap="round"><g transform="translate(406.9243540336737 522.4878667195637) rotate(0 9.667607979755687 91.46251826916156)"><path d="M-0.51 0.63 C2.84 31.3, 16.53 152.54, 19.67 183.05 M1.43 -0.09 C4.68 30.88, 15.69 154.35, 18.89 184.66" stroke="#000000" stroke-width="1" fill="none"/></g><g transform="translate(406.9243540336737 522.4878667195637) rotate(0 9.667607979755687 91.46251826916156)"><path d="M7.02 158.14 C9.41 163.11, 13.89 173.97, 17.37 185.16 M5 157.87 C8.86 164.37, 12.07 170.55, 19.49 183.78" stroke="#000000" stroke-width="1" fill="none"/></g><g transform="translate(406.9243540336737 522.4878667195637) rotate(0 9.667607979755687 91.46251826916156)"><path d="M27.45 156.17 C24.39 161.58, 23.44 172.96, 17.37 185.16 M25.43 155.9 C24.68 162.83, 23.31 169.45, 19.49 183.78" stroke="#000000" stroke-width="1" fill="none"/></g></g><g stroke-linecap="round"><g transform="translate(394.94698499707283 522.6099370320637) rotate(0 -29.660980872792223 149.83992513020837)"><path d="M-0.41 -1.2 C-9.98 24.89, -50.97 107.19, -58.41 157.45 C-65.85 207.7, -47.42 276.58, -45.05 300.33 M1.58 0.79 C-7.98 26.46, -51.52 106.12, -58.88 155.71 C-66.23 205.3, -45.05 274.09, -42.55 298.33" stroke="#000000" stroke-width="1" fill="none"/></g><g transform="translate(394.94698499707283 522.6099370320637) rotate(0 -29.660980872792223 149.83992513020837)"><path d="M-59.82 274.03 C-53.11 276.89, -49.93 283.89, -42.14 300.19 M-56.87 271.79 C-54.77 278.65, -50.69 285.44, -42.12 298.43" stroke="#000000" stroke-width="1" fill="none"/></g><g transform="translate(394.94698499707283 522.6099370320637) rotate(0 -29.660980872792223 149.83992513020837)"><path d="M-39.65 270.25 C-37.27 273.86, -38.47 281.68, -42.14 300.19 M-36.7 268.01 C-40.04 275.88, -41.36 283.68, -42.12 298.43" stroke="#000000" stroke-width="1" fill="none"/></g></g><g stroke-linecap="round"><g transform="translate(660.5570122587663 733.2973514742459) rotate(0 126.53019617083064 -1.8803389673159927)"><path d="M-0.79 -0.44 C41.29 -0.99, 210.88 -2.54, 253.24 -3.01 M1 -1.72 C42.87 -2.63, 210.43 -4.13, 252.38 -4.74" stroke="#000000" stroke-width="1" fill="none"/></g><g transform="translate(660.5570122587663 733.2973514742459) rotate(0 126.53019617083064 -1.8803389673159927)"><path d="M223.58 6.14 C235.75 2.63, 245.53 -2.75, 251.58 -4.39 M224.36 6.37 C233.88 3.23, 243.7 -1.4, 253.23 -4.53" stroke="#000000" stroke-width="1" fill="none"/></g><g transform="translate(660.5570122587663 733.2973514742459) rotate(0 126.53019617083064 -1.8803389673159927)"><path d="M223.34 -14.38 C235.65 -10.42, 245.52 -8.33, 251.58 -4.39 M224.13 -14.15 C233.9 -10.11, 243.81 -7.55, 253.23 -4.53" stroke="#000000" stroke-width="1" fill="none"/></g></g><g stroke-linecap="round" transform="translate(1234.8315865652903 525.2149378805161) rotate(0 84 46.5)"><path d="M92.72 -0.25 C104.37 -0.21, 118.4 4.18, 128.65 7.68 C138.9 11.17, 147.69 15.18, 154.23 20.72 C160.76 26.26, 166.37 33.9, 167.86 40.9 C169.35 47.9, 167.19 56.25, 163.17 62.7 C159.15 69.15, 152.4 74.95, 143.74 79.6 C135.07 84.25, 122.7 88.42, 111.19 90.61 C99.68 92.8, 86.56 93.65, 74.67 92.74 C62.77 91.83, 50 88.77, 39.83 85.15 C29.66 81.53, 20.07 76.7, 13.65 71.01 C7.23 65.32, 2.69 57.76, 1.31 51 C-0.08 44.24, 1.65 36.56, 5.35 30.46 C9.05 24.35, 14.88 19.05, 23.49 14.36 C32.1 9.66, 44.44 4.7, 57.01 2.3 C69.57 -0.11, 91.36 0.08, 98.9 -0.08 C106.43 -0.24, 102.63 0.5, 102.24 1.33 M97.4 0.42 C109.16 0.95, 121.85 4.84, 131.97 8.82 C142.09 12.81, 151.97 18.33, 158.13 24.31 C164.3 30.29, 168.34 37.8, 168.95 44.68 C169.56 51.57, 166.38 59.44, 161.78 65.64 C157.17 71.84, 150.44 77.61, 141.3 81.91 C132.15 86.21, 118.88 89.52, 106.92 91.43 C94.96 93.35, 81.55 94.8, 69.54 93.4 C57.54 92, 44.71 86.94, 34.91 83.03 C25.11 79.13, 16.73 75.75, 10.76 69.98 C4.8 64.21, -0.24 55.11, -0.89 48.41 C-1.53 41.71, 2.22 35.78, 6.89 29.78 C11.56 23.78, 18.31 17.02, 27.15 12.4 C35.99 7.79, 48.17 4.19, 59.94 2.07 C71.71 -0.04, 91.48 -0.01, 97.77 -0.27 C104.07 -0.53, 98.04 -0.22, 97.68 0.52" stroke="#000000" stroke-width="1" fill="none"/></g><g transform="translate(1239.8315865652903 559.2149378805161) rotate(0 79 12.5)"><text x="79" y="18" font-family="LocalFont, Segoe UI Emoji" font-size="20px" fill="#000000" text-anchor="middle" style="white-space: pre;" direction="ltr">notion</text></g><g stroke-linecap="round"><g transform="translate(1233.5805909055857 708.2890345255533) rotate(0 87.51186635431316 -111.58024669828873)"><path d="M-0.77 0.88 C24.54 -9.19, 123.1 -23.7, 152.31 -60.84 C181.51 -97.99, 170.68 -195.14, 174.47 -222.01 M1.03 0.29 C26.68 -9.62, 125.93 -22.51, 154.66 -59.84 C183.39 -97.18, 169.97 -196.39, 173.42 -223.75" stroke="#000000" stroke-width="1" fill="none"/></g><g transform="translate(1233.5805909055857 708.2890345255533) rotate(0 87.51186635431316 -111.58024669828873)"><path d="M185.04 -196.65 C178.52 -206.12, 178.68 -214.77, 175.29 -222.85 M183.33 -194.54 C179.4 -206.61, 176.34 -217.67, 173.3 -223.85" stroke="#000000" stroke-width="1" fill="none"/></g><g transform="translate(1233.5805909055857 708.2890345255533) rotate(0 87.51186635431316 -111.58024669828873)"><path d="M164.52 -196.72 C164.99 -206.04, 172.15 -214.66, 175.29 -222.85 M162.81 -194.61 C166.63 -206.52, 171.33 -217.55, 173.3 -223.85" stroke="#000000" stroke-width="1" fill="none"/></g></g><g stroke-linecap="round" transform="translate(610.8654668898812 1026.328222002302) rotate(0 185 53.5)"><path d="M26.75 0 M26.75 0 C130.93 1, 235.36 0.64, 343.25 0 M26.75 0 C149.74 -1.34, 273.27 -2.08, 343.25 0 M343.25 0 C361.08 0.87, 369.83 10.13, 370 26.75 M343.25 0 C358.9 -0.87, 370.4 7.68, 370 26.75 M370 26.75 C371.48 44.41, 369.92 60.23, 370 80.25 M370 26.75 C369.55 44.26, 369.97 60.66, 370 80.25 M370 80.25 C368.44 98.07, 359.55 107.83, 343.25 107 M370 80.25 C371.49 99.43, 360.81 107.46, 343.25 107 M343.25 107 C230.34 103.9, 119.19 105.06, 26.75 107 M343.25 107 C278.9 108.98, 215 108.34, 26.75 107 M26.75 107 C9.02 107.33, -1.82 96.97, 0 80.25 M26.75 107 C10.27 106.1, 0.86 98.86, 0 80.25 M0 80.25 C1.2 61.94, -1.67 42.55, 0 26.75 M0 80.25 C-0.89 60.99, -0.42 42.2, 0 26.75 M0 26.75 C-0.04 9.2, 10.76 -1.41, 26.75 0 M0 26.75 C-1.07 7.68, 10.69 1.28, 26.75 0" stroke="#000000" stroke-width="1" fill="none"/></g><a href="[[搜索一切]]"><g transform="translate(615.8654668898812 1067.328222002302) rotate(0 180 12.5)"><text x="180" y="18" font-family="LocalFont, Segoe UI Emoji" font-size="20px" fill="#000000" text-anchor="middle" style="white-space: pre;" direction="ltr">📍[[搜索一切]]</text></g></a><g stroke-linecap="round" transform="translate(686.5035807291672 882.2495564052034) rotate(0 122.21771240234375 36.810259137834805)"><path d="M146.34 1.36 C161.15 1.52, 177.65 2.97, 190.59 5.64 C203.53 8.32, 215.44 13.42, 223.97 17.43 C232.49 21.43, 238.85 25.03, 241.72 29.68 C244.6 34.33, 244.16 40.64, 241.19 45.33 C238.22 50.03, 232.55 54.11, 223.92 57.85 C215.29 61.59, 202.66 65.2, 189.43 67.79 C176.2 70.38, 160.06 72.51, 144.54 73.37 C129.01 74.24, 111.59 73.95, 96.29 72.97 C80.98 71.98, 65.51 70.2, 52.7 67.46 C39.88 64.71, 27.78 60.3, 19.4 56.49 C11.01 52.69, 5.12 49.15, 2.37 44.61 C-0.37 40.06, -0.18 33.89, 2.92 29.23 C6.03 24.56, 12.33 20.53, 21.01 16.62 C29.7 12.72, 41.87 8.5, 55.03 5.81 C68.19 3.13, 83.35 1.21, 99.97 0.52 C116.59 -0.17, 144.76 1.22, 154.75 1.66 C164.74 2.11, 160.61 2.71, 159.91 3.21 M78.16 3.01 C91.46 0.99, 110.14 0.38, 126.04 0.55 C141.94 0.72, 159.3 2.1, 173.56 4.03 C187.82 5.96, 200.97 8.9, 211.6 12.12 C222.23 15.34, 232.02 18.88, 237.35 23.36 C242.68 27.85, 244.03 34.43, 243.58 39.03 C243.12 43.64, 240.9 47.05, 234.62 51 C228.34 54.94, 217.48 59.35, 205.89 62.71 C194.29 66.07, 179.91 69.49, 165.04 71.15 C150.17 72.82, 132.38 73.07, 116.67 72.7 C100.96 72.34, 84.72 71.01, 70.77 68.97 C56.83 66.93, 43.64 63.77, 33.02 60.46 C22.4 57.15, 12.56 53.4, 7.04 49.11 C1.52 44.83, -0.57 39.53, -0.07 34.75 C0.42 29.97, 3.49 24.76, 10.01 20.42 C16.54 16.07, 27.75 11.92, 39.07 8.66 C50.38 5.4, 71.22 1.87, 77.92 0.85 C84.63 -0.17, 78.47 1.96, 79.3 2.54" stroke="#000000" stroke-width="1" fill="none"/></g><g transform="translate(691.5035807291672 906.0598155430382) rotate(0 117.21771240234375 13)"><text x="117.21771240234375" y="18" font-family="LocalFont, Segoe UI Emoji" font-size="20.037215795272438px" fill="#000000" text-anchor="middle" style="white-space: pre;" direction="ltr">alfred</text></g><g stroke-linecap="round"><g transform="translate(814.6465108299249 1022.4430378505159) rotate(0 -3.2691833092957268 -30.331116105147316)"><path d="M0.42 0.64 C-0.66 -9.42, -4.85 -50.46, -5.95 -60.58" stroke="#000000" stroke-width="1.5" fill="none" stroke-dasharray="8 9"/></g><g transform="translate(814.6465108299249 1022.4430378505159) rotate(0 -3.2691833092957268 -30.331116105147316)"><path d="M8.26 -32.64 C2.86 -42.25, -0.86 -52.81, -7 -59.27" stroke="#000000" stroke-width="1.5" fill="none"/></g><g transform="translate(814.6465108299249 1022.4430378505159) rotate(0 -3.2691833092957268 -30.331116105147316)"><path d="M-12.15 -30.5 C-10.52 -40.92, -7.22 -52.21, -7 -59.27" stroke="#000000" stroke-width="1.5" fill="none"/></g></g><g stroke-linecap="round"><g transform="translate(731.8866307989524 881.1896269801115) rotate(0 -68.09304080282035 -125.9459339034268)"><path d="M0.34 0.45 C-22.38 -41.35, -113.19 -209.36, -136.04 -251.59" stroke="#000000" stroke-width="1.5" fill="none" stroke-dasharray="8 9"/></g><g transform="translate(731.8866307989524 881.1896269801115) rotate(0 -68.09304080282035 -125.9459339034268)"><path d="M-112.85 -231.43 C-120.14 -238.91, -129.58 -244.36, -137.49 -249.8" stroke="#000000" stroke-width="1.5" fill="none"/></g><g transform="translate(731.8866307989524 881.1896269801115) rotate(0 -68.09304080282035 -125.9459339034268)"><path d="M-130.9 -221.67 C-132.36 -232.32, -136.05 -240.88, -137.49 -249.8" stroke="#000000" stroke-width="1.5" fill="none"/></g></g><g stroke-linecap="round"><g transform="translate(810.6401151093644 873.7515829758104) rotate(0 42.59486249056573 -172.91328377574655)"><path d="M-0.96 1.16 C13.37 -56.2, 71.53 -287.45, 85.81 -345.11" stroke="#000000" stroke-width="1.5" fill="none" stroke-dasharray="8 9"/></g><g transform="translate(810.6401151093644 873.7515829758104) rotate(0 42.59486249056573 -172.91328377574655)"><path d="M90.86 -314.23 C89.48 -324.55, 89.12 -331.2, 86.78 -346.46" stroke="#000000" stroke-width="1.5" fill="none"/></g><g transform="translate(810.6401151093644 873.7515829758104) rotate(0 42.59486249056573 -172.91328377574655)"><path d="M70.95 -319.21 C75.23 -327.95, 80.57 -333.17, 86.78 -346.46" stroke="#000000" stroke-width="1.5" fill="none"/></g></g><g stroke-linecap="round" transform="translate(972.0723411923366 532.8049763270785) rotate(0 88.20155552455356 46.056474958147305)"><path d="M112.84 2.43 C124.96 3.41, 137.09 6.41, 146.64 10.84 C156.18 15.28, 165.13 22.81, 170.11 29.05 C175.09 35.29, 177.34 41.78, 176.53 48.28 C175.72 54.77, 171.63 61.97, 165.27 68.02 C158.9 74.07, 148.85 80.66, 138.35 84.57 C127.85 88.49, 114.79 90.6, 102.26 91.54 C89.73 92.47, 75.25 92.18, 63.17 90.18 C51.08 88.17, 39.29 83.88, 29.74 79.5 C20.19 75.13, 10.9 70.07, 5.89 63.93 C0.87 57.8, -1.13 49.53, -0.35 42.7 C0.42 35.86, 4.21 28.6, 10.53 22.91 C16.84 17.21, 26.98 12.12, 37.53 8.52 C48.07 4.92, 60.45 2.24, 73.78 1.32 C87.12 0.4, 109.25 2.41, 117.54 3.02 C125.84 3.63, 124.06 4.33, 123.56 4.98 M61.64 1.4 C72.81 -1.32, 88.7 -0.86, 101.39 0.31 C114.08 1.49, 127.1 4.89, 137.81 8.43 C148.51 11.97, 159.22 15.87, 165.62 21.55 C172.01 27.23, 175.42 35.4, 176.16 42.49 C176.9 49.58, 174.7 57.95, 170.05 64.07 C165.4 70.19, 157.52 74.7, 148.28 79.22 C139.04 83.74, 126.94 89.3, 114.61 91.18 C102.28 93.07, 87 91.91, 74.32 90.55 C61.64 89.19, 48.7 86.63, 38.52 83.01 C28.33 79.39, 19.54 74.51, 13.21 68.83 C6.88 63.14, 1.69 55.28, 0.53 48.9 C-0.63 42.52, 1.84 36.67, 6.26 30.55 C10.68 24.42, 17.72 17.12, 27.05 12.13 C36.37 7.15, 56.11 2.35, 62.22 0.63 C68.32 -1.09, 63.07 0.84, 63.67 1.8" stroke="#000000" stroke-width="1" fill="none"/></g><g transform="translate(977.0723411923366 565.8614512852258) rotate(0 83.20155552455356 13)"><text x="83.20155552455356" y="18" font-family="LocalFont, Segoe UI Emoji" font-size="20.048567596277962px" fill="#000000" text-anchor="middle" style="white-space: pre;" direction="ltr">obsidian</text></g><g stroke-linecap="round"><g transform="translate(869.8780950237576 881.3881454996531) rotate(0 88.8933810156592 -123.43361026635802)"><path d="M-0.58 0.2 C29.26 -41.11, 149.06 -206.51, 178.75 -247.66" stroke="#000000" stroke-width="1.5" fill="none" stroke-dasharray="8 9"/></g><g transform="translate(869.8780950237576 881.3881454996531) rotate(0 88.8933810156592 -123.43361026635802)"><path d="M170.88 -217.2 C171.43 -227.05, 175.33 -236.62, 180.3 -249.21" stroke="#000000" stroke-width="1.5" fill="none"/></g><g transform="translate(869.8780950237576 881.3881454996531) rotate(0 88.8933810156592 -123.43361026635802)"><path d="M154.25 -229.22 C159.41 -235.68, 167.9 -241.93, 180.3 -249.21" stroke="#000000" stroke-width="1.5" fill="none"/></g></g><g stroke-linecap="round"><g transform="translate(927.8895066501291 899.2579106155611) rotate(0 185.25863970497403 -138.85297217487047)"><path d="M-0.92 1.12 C60.76 -45.22, 308.58 -230.29, 370.58 -276.83" stroke="#000000" stroke-width="1.5" fill="none" stroke-dasharray="8 9"/></g><g transform="translate(927.8895066501291 899.2579106155611) rotate(0 185.25863970497403 -138.85297217487047)"><path d="M356.03 -251.62 C361 -259.25, 364.49 -269.23, 369.43 -275.33" stroke="#000000" stroke-width="1.5" fill="none"/></g><g transform="translate(927.8895066501291 899.2579106155611) rotate(0 185.25863970497403 -138.85297217487047)"><path d="M343.73 -268.05 C353.09 -269.95, 360.8 -274.28, 369.43 -275.33" stroke="#000000" stroke-width="1.5" fill="none"/></g></g><g stroke-linecap="round" transform="translate(308.16896856398836 910.2192655290872) rotate(0 118.53777204241072 46.17898123604908)"><path d="M128.29 0.24 C142.63 -0.07, 159.41 2.17, 172.8 4.79 C186.18 7.41, 198.84 11.32, 208.6 15.93 C218.35 20.54, 226.6 26.71, 231.31 32.44 C236.02 38.17, 238.13 44.49, 236.87 50.33 C235.61 56.17, 230.75 62.15, 223.75 67.48 C216.75 72.8, 206.32 78.47, 194.87 82.26 C183.42 86.06, 169.51 88.5, 155.04 90.25 C140.56 91.99, 123.3 93.24, 108.03 92.74 C92.75 92.25, 76.87 90.08, 63.39 87.26 C49.91 84.43, 36.62 80.17, 27.14 75.79 C17.66 71.41, 10.89 66.6, 6.49 60.98 C2.09 55.36, -0.27 48.1, 0.73 42.07 C1.73 36.05, 5.72 29.95, 12.5 24.83 C19.27 19.71, 29.8 15.17, 41.37 11.36 C52.94 7.54, 65.36 3.56, 81.94 1.94 C98.52 0.32, 129.15 1.51, 140.86 1.66 C152.57 1.81, 152.5 2.09, 152.2 2.82 M146.86 2.69 C161.29 3.07, 176.69 5.02, 188.86 8.32 C201.02 11.62, 212 17.51, 219.84 22.51 C227.68 27.52, 233.57 32.81, 235.9 38.35 C238.24 43.9, 237.34 50.08, 233.85 55.8 C230.37 61.52, 224.06 67.85, 214.99 72.67 C205.92 77.49, 192.26 81.56, 179.43 84.71 C166.6 87.86, 152.77 90.56, 138.02 91.57 C123.28 92.58, 105.95 92.12, 90.97 90.75 C76 89.38, 60.58 86.69, 48.17 83.33 C35.76 79.98, 24.16 75.58, 16.53 70.62 C8.9 65.65, 4.78 59.48, 2.37 53.56 C-0.05 47.64, -1.39 40.8, 2.05 35.1 C5.49 29.41, 13.83 23.91, 23.02 19.39 C32.2 14.88, 44.38 11.37, 57.16 8 C69.94 4.63, 84.67 0.15, 99.68 -0.83 C114.69 -1.81, 139.72 1.49, 147.21 2.13 C154.71 2.76, 145.15 2.48, 144.66 3" stroke="#000000" stroke-width="1" fill="none"/></g><g stroke-linecap="round"><g transform="translate(680.0670430130804 924.0275139620516) rotate(0 -61.3564464203055 12.321335578752382)"><path d="M0.05 -0.93 C-20.48 3.13, -102.6 20.7, -123.02 25.06" stroke="#000000" stroke-width="1.5" fill="none" stroke-dasharray="8 9"/></g><g transform="translate(680.0670430130804 924.0275139620516) rotate(0 -61.3564464203055 12.321335578752382)"><path d="M-99.15 8.62 C-104.82 14.54, -112.5 20.72, -123.12 23.17" stroke="#000000" stroke-width="1.5" fill="none"/></g><g transform="translate(680.0670430130804 924.0275139620516) rotate(0 -61.3564464203055 12.321335578752382)"><path d="M-94.86 28.69 C-102 28.29, -111.04 28.14, -123.12 23.17" stroke="#000000" stroke-width="1.5" fill="none"/></g></g><g transform="translate(313.16896856398836 943.8982467651364) rotate(0 113.53777204241072 12.5)"><text x="113.53777204241072" y="18" font-family="LocalFont, Segoe UI Emoji" font-size="20.006655866504094px" fill="#000000" text-anchor="middle" style="white-space: pre;" direction="ltr">chrome</text></g><g stroke-linecap="round" transform="translate(1086.8777262369792 840.8899547031945) rotate(0 106 46.018022809709805)"><path d="M67.2 2.79 C79.05 -0.26, 95.52 -0.95, 109.72 -0.71 C123.93 -0.47, 139.26 1.27, 152.41 4.21 C165.56 7.15, 179.22 12, 188.62 16.93 C198.01 21.86, 204.93 27.91, 208.79 33.79 C212.64 39.66, 213.96 46.01, 211.75 52.19 C209.54 58.37, 203.53 65.53, 195.54 70.87 C187.55 76.2, 175.8 80.92, 163.78 84.19 C151.77 87.46, 137.38 89.49, 123.45 90.48 C109.51 91.47, 94.2 91.61, 80.19 90.13 C66.17 88.64, 50.57 85.42, 39.37 81.58 C28.17 77.74, 19.43 72.65, 13.01 67.07 C6.58 61.49, 2.05 54.15, 0.82 48.1 C-0.4 42.05, 0.91 36.62, 5.67 30.76 C10.43 24.89, 17.37 17.73, 29.4 12.91 C41.43 8.09, 67.85 3.87, 77.86 1.85 C87.88 -0.17, 89.17 -0.01, 89.49 0.79 M131.88 1.24 C145.34 2.34, 160.86 7.26, 172.25 11.06 C183.65 14.85, 193.5 18.64, 200.26 24.02 C207.01 29.39, 211.88 36.73, 212.79 43.32 C213.7 49.91, 210.7 57.84, 205.71 63.55 C200.72 69.27, 193.23 73.26, 182.85 77.61 C172.47 81.97, 156.91 87.27, 143.42 89.66 C129.93 92.04, 115.88 92.46, 101.93 91.94 C87.99 91.41, 72.67 89.05, 59.74 86.52 C46.8 83.98, 33.5 81.41, 24.33 76.72 C15.16 72.04, 8.6 64.86, 4.71 58.39 C0.81 51.91, -0.8 44.27, 0.97 37.85 C2.74 31.43, 7.38 24.94, 15.34 19.86 C23.29 14.77, 36.46 10.44, 48.67 7.33 C60.88 4.22, 74.37 2.36, 88.6 1.22 C102.82 0.08, 126.79 0.1, 134.03 0.5 C141.26 0.89, 132.78 2.47, 132.03 3.61" stroke="#000000" stroke-width="1" fill="none"/></g><g transform="translate(1091.8777262369792 874.4079775129043) rotate(0 101 12.5)"><text x="101" y="18" font-family="LocalFont, Segoe UI Emoji" font-size="20px" fill="#000000" text-anchor="middle" style="white-space: pre;" direction="ltr">finder</text></g><g stroke-linecap="round" transform="translate(1082.7608177548366 959.1797496250695) rotate(0 118.5 41.242327008928555)"><path d="M145.74 0.16 C160.05 0.56, 174.46 4.65, 186.83 7.93 C199.2 11.22, 211.83 15.36, 219.95 19.88 C228.07 24.39, 233.24 29.94, 235.55 35.01 C237.86 40.09, 237.18 45.35, 233.81 50.31 C230.45 55.27, 224.09 60.57, 215.34 64.78 C206.6 68.99, 194.33 72.69, 181.33 75.58 C168.34 78.47, 152.44 81.04, 137.38 82.13 C122.32 83.23, 105.75 83.25, 90.98 82.12 C76.21 80.99, 60.98 78.46, 48.75 75.36 C36.52 72.26, 25.38 68.13, 17.6 63.54 C9.82 58.94, 4.37 53.02, 2.05 47.81 C-0.27 42.61, 0.18 37.36, 3.69 32.31 C7.2 27.26, 14.36 21.95, 23.1 17.49 C31.83 13.03, 43.53 8.5, 56.09 5.55 C68.65 2.61, 81.55 0.49, 98.46 -0.18 C115.37 -0.84, 145.94 0.81, 157.54 1.55 C169.15 2.29, 168.57 3.63, 168.09 4.27 M144.85 2.39 C159.38 2.84, 176.9 4.56, 189.14 7.5 C201.39 10.44, 210.36 15.48, 218.32 20.05 C226.28 24.62, 234.47 29.84, 236.9 34.92 C239.34 39.99, 236.77 45.24, 232.95 50.49 C229.13 55.73, 222.87 62.26, 213.99 66.39 C205.11 70.52, 192.18 72.75, 179.66 75.24 C167.14 77.74, 153.7 80.51, 138.86 81.37 C124.02 82.23, 105.48 81.5, 90.61 80.43 C75.75 79.35, 61.76 77.89, 49.66 74.9 C37.57 71.91, 26.04 66.92, 18.05 62.49 C10.06 58.06, 4.15 53.22, 1.73 48.31 C-0.69 43.39, 0.1 38.42, 3.53 32.98 C6.96 27.55, 13.61 20.17, 22.31 15.7 C31.01 11.24, 42.74 8.68, 55.72 6.19 C68.7 3.71, 85.24 1.73, 100.19 0.78 C115.14 -0.17, 138.05 0.21, 145.4 0.48 C152.74 0.75, 144.43 1.46, 144.26 2.39" stroke="#000000" stroke-width="1" fill="none"/></g><g transform="translate(1087.7608177548366 987.922076633998) rotate(0 113.5 12.5)"><text x="113.5" y="18" font-family="LocalFont, Segoe UI Emoji" font-size="20px" fill="#000000" text-anchor="middle" style="white-space: pre;" direction="ltr">同步云盘</text></g><g stroke-linecap="round"><g transform="translate(939.0563016261374 908.3986901602192) rotate(0 72.79223974585045 -16.3833522736017)"><path d="M0.03 0.53 C24.52 -4.91, 121.61 -27.37, 145.78 -33.04" stroke="#000000" stroke-width="1.5" fill="none" stroke-dasharray="8 9"/></g><g transform="translate(939.0563016261374 908.3986901602192) rotate(0 72.79223974585045 -16.3833522736017)"><path d="M121.52 -16.33 C125.4 -20.86, 129.77 -22.75, 147.58 -31.84" stroke="#000000" stroke-width="1.5" fill="none"/></g><g transform="translate(939.0563016261374 908.3986901602192) rotate(0 72.79223974585045 -16.3833522736017)"><path d="M116.88 -36.32 C121.64 -36.75, 126.96 -34.53, 147.58 -31.84" stroke="#000000" stroke-width="1.5" fill="none"/></g></g><g stroke-linecap="round"><g transform="translate(935.4667584154381 924.2050165066582) rotate(0 71.84737923936547 33.65217337857979)"><path d="M-0.35 1.04 C23.51 12.61, 118.72 57.5, 142.69 68.49" stroke="#000000" stroke-width="1.5" fill="none" stroke-dasharray="8 9"/></g><g transform="translate(935.4667584154381 924.2050165066582) rotate(0 71.84737923936547 33.65217337857979)"><path d="M114.53 64.2 C122.5 66.28, 127.78 69.3, 142.3 67.82" stroke="#000000" stroke-width="1.5" fill="none"/></g><g transform="translate(935.4667584154381 924.2050165066582) rotate(0 71.84737923936547 33.65217337857979)"><path d="M123.2 45.6 C128.78 52.47, 131.81 60.31, 142.3 67.82" stroke="#000000" stroke-width="1.5" fill="none"/></g></g><g transform="translate(459.0191010974706 235.00089917864113) rotate(0 106 14.5)"><text x="106" y="21" font-family="LocalFont, Segoe UI Emoji" font-size="20px" fill="#000000" text-anchor="middle" style="white-space: pre;" direction="ltr">『入不孵出』PKM 系统</text></g></svg>